<svg width="25" height="24" viewBox="0 0 25 24" fill="none" xmlns="http://www.w3.org/2000/svg">
<path fill-rule="evenodd" clip-rule="evenodd" d="M19 21.5H15.5C14.5334 21.5 13.75 20.7166 13.75 19.75V15.0833C13.75 14.1167 14.5334 13.3333 15.5 13.3333H22.5C23.4666 13.3333 24.25 14.1167 24.25 15.0833V19.75C24.25 20.7166 23.4666 21.5 22.5 21.5H21.625V23.25L19 21.5Z" fill="#EEEEFF" stroke="#434B74" stroke-width="1.5" stroke-linecap="round" stroke-linejoin="round"/>
<path fill-rule="evenodd" clip-rule="evenodd" d="M10 17H16C17.657 17 19 15.657 19 14V6C19 4.343 17.657 3 16 3H4C2.343 3 1 4.343 1 6V14C1 15.657 2.343 17 4 17H5.5V20L10 17Z" fill="#FFF1CB" stroke="#434B74" stroke-width="1.5" stroke-linecap="round" stroke-linejoin="round"/>
<path d="M10.6768 10.3232C10.7744 10.4209 10.7744 10.5791 10.6768 10.6768C10.5791 10.7744 10.4209 10.7744 10.3232 10.6768C10.2256 10.5791 10.2256 10.4209 10.3232 10.3232C10.4209 10.2256 10.5791 10.2256 10.6768 10.3232" stroke="#434B74" stroke-width="1.5" stroke-linecap="round" stroke-linejoin="round"/>
<path d="M14.6768 10.3232C14.7744 10.4209 14.7744 10.5791 14.6768 10.6768C14.5791 10.7744 14.4209 10.7744 14.3232 10.6768C14.2256 10.5791 14.2256 10.4209 14.3232 10.3232C14.4209 10.2256 14.5791 10.2256 14.6768 10.3232" stroke="#434B74" stroke-width="1.5" stroke-linecap="round" stroke-linejoin="round"/>
<path d="M6.67678 10.3232C6.77441 10.4209 6.77441 10.5791 6.67678 10.6768C6.57915 10.7744 6.42085 10.7744 6.32322 10.6768C6.22559 10.5791 6.22559 10.4209 6.32322 10.3232C6.42085 10.2256 6.57915 10.2256 6.67678 10.3232" stroke="#434B74" stroke-width="1.5" stroke-linecap="round" stroke-linejoin="round"/>
</svg>
