<svg width="17" height="16" viewBox="0 0 17 16" fill="none" xmlns="http://www.w3.org/2000/svg">
<path d="M2.59741 5.2765H13.2381C13.9747 5.2765 14.5714 5.87317 14.5714 6.60983V12.6665C14.5714 13.3998 13.9714 13.9998 13.2381 13.9998H3.90474C3.16808 13.9998 2.57141 13.4032 2.57141 12.6665V5.52717C2.57141 4.9725 2.91474 4.47583 3.43408 4.27983L10.3361 1.67383C10.7721 1.50917 11.2381 1.83117 11.2381 2.29717V5.27583" stroke="#E12828" stroke-linecap="round" stroke-linejoin="round"/>
<path d="M11.2374 9.41668C11.0994 9.41734 10.9881 9.52934 10.9881 9.66734C10.9881 9.80534 11.1001 9.91734 11.2381 9.91668C11.3761 9.91668 11.4881 9.80468 11.4881 9.66668C11.4881 9.52868 11.3761 9.41668 11.2374 9.41668" stroke="#E12828" stroke-linecap="round" stroke-linejoin="round"/>
</svg>
