<svg width="81" height="42" viewBox="0 0 81 42" fill="none" xmlns="http://www.w3.org/2000/svg">
<path d="M1.21374 16.9459C0.843677 16.6861 0.579346 16.2445 0.579346 15.7249C0.579346 14.8935 1.26661 14.244 2.11247 14.244C2.56184 14.244 2.85261 14.3739 3.06407 14.5298C4.5972 15.7249 6.23607 16.4004 8.245 16.4004C10.2539 16.4004 11.5227 15.4651 11.5227 14.1141V14.0622C11.5227 12.7632 10.7826 12.0617 7.34362 11.2823C3.40506 10.3471 1.18202 9.20394 1.18202 5.84995V5.79799C1.18202 2.68041 3.82535 0.524078 7.50222 0.524078C9.82835 0.524078 11.7051 1.12161 13.3731 2.21277C13.7431 2.42061 14.0868 2.86226 14.0868 3.48578C14.0868 4.31713 13.3995 4.96663 12.5536 4.96663C12.2364 4.96663 11.9721 4.88869 11.7078 4.73281C10.2804 3.82352 8.90583 3.35588 7.452 3.35588C5.5488 3.35588 4.43861 4.31713 4.43861 5.51221V5.56417C4.43861 6.96708 5.28447 7.5906 8.85296 8.42195C12.7651 9.35722 14.774 10.7342 14.774 13.7504V13.8024C14.774 17.2057 12.0514 19.2322 8.16569 19.2322C5.65453 19.2322 3.27554 18.4528 1.21374 16.9459Z" fill="#353A51"/>
<path d="M17.6764 6.68121C17.6764 5.79789 18.3637 5.09644 19.2624 5.09644C20.1611 5.09644 20.8748 5.79789 20.8748 6.68121V17.5434C20.8748 18.4267 20.1611 19.1022 19.2624 19.1022C18.3901 19.1022 17.6764 18.4267 17.6764 17.5434V6.68121Z" fill="#353A51"/>
<path d="M17.4385 2.0542C17.4385 1.11893 18.2315 0.521393 19.2624 0.521393C20.2933 0.521393 21.0863 1.11893 21.0863 2.0542V2.21008C21.0863 3.14536 20.2933 3.76887 19.2624 3.76887C18.2315 3.76887 17.4385 3.14536 17.4385 2.21008V2.0542Z" fill="#32D2FF"/>
<path d="M24.3032 6.68121C24.3032 5.7979 24.9905 5.09644 25.8892 5.09644C26.788 5.09644 27.5017 5.7979 27.5017 6.68121V8.08413C28.2418 6.36946 29.6163 5.07047 31.0199 5.07047C32.0244 5.07047 32.6059 5.71996 32.6059 6.62926C32.6059 7.46061 32.0508 8.00619 31.3371 8.13609C29.0639 8.52578 27.5017 10.2405 27.5017 13.4905V17.5434C27.5017 18.4007 26.788 19.1022 25.8892 19.1022C25.0169 19.1022 24.3032 18.4267 24.3032 17.5434V6.68121Z" fill="#353A51"/>
<path d="M34.4827 6.68121C34.4827 5.79789 35.1699 5.09644 36.0687 5.09644C36.9674 5.09644 37.6811 5.79789 37.6811 6.68121V17.5434C37.6811 18.4267 36.9674 19.1022 36.0687 19.1022C35.1964 19.1022 34.4827 18.4267 34.4827 17.5434V6.68121Z" fill="#353A51"/>
<path d="M34.2474 2.0542C34.2474 1.11893 35.0404 0.521393 36.0713 0.521393C37.1022 0.521393 37.8952 1.11893 37.8952 2.0542V2.21008C37.8952 3.14536 37.1022 3.76887 36.0713 3.76887C35.0404 3.76887 34.2474 3.14536 34.2474 2.21008V2.0542Z" fill="#32D2FF"/>
<path d="M53.4936 17.5434C53.4936 18.4007 52.7799 19.1022 51.8811 19.1022C51.0088 19.1022 50.2687 18.4267 50.2687 17.5434V16.8419C49.37 18.1409 48.0747 19.258 45.9072 19.258C42.7616 19.258 40.9377 17.1797 40.9377 13.9841V6.68121C40.9377 5.79789 41.6514 5.09644 42.5237 5.09644C43.4225 5.09644 44.1362 5.79789 44.1362 6.68121V13.0489C44.1362 15.1792 45.2199 16.3743 47.1231 16.3743C48.9735 16.3743 50.2687 15.1273 50.2687 12.9969V6.68121C50.2687 5.79789 50.9824 5.09644 51.8811 5.09644C52.7534 5.09644 53.4936 5.79789 53.4936 6.68121V17.5434Z" fill="#353A51"/>
<path d="M56.4434 17.5954C56.0998 17.4135 55.8354 17.0238 55.8354 16.5042C55.8354 15.8028 56.3905 15.2312 57.1307 15.2312C57.395 15.2312 57.6329 15.3091 57.8179 15.4131C59.166 16.2964 60.5696 16.738 61.8384 16.738C63.213 16.738 64.006 16.1665 64.006 15.2572V15.2052C64.006 14.14 62.5257 13.7763 60.8842 13.2827C58.8224 12.7112 56.5227 11.8798 56.5227 9.25583V9.20387C56.5227 6.60589 58.7167 5.02112 61.4922 5.02112C62.9724 5.02112 64.532 5.4368 65.8801 6.13825C66.3295 6.37207 66.6467 6.78775 66.6467 7.33332C66.6467 8.06076 66.0651 8.60634 65.325 8.60634C65.0607 8.60634 64.9021 8.55438 64.6906 8.45046C63.554 7.8789 62.3909 7.51518 61.4129 7.51518C60.1705 7.51518 59.4568 8.08674 59.4568 8.86873V8.92069C59.4568 9.93391 60.9635 10.3496 62.6024 10.8692C64.6377 11.4927 66.9374 12.402 66.9374 14.8701V14.922C66.9374 17.8058 64.6642 19.2373 61.7565 19.2373C59.9855 19.2321 58.0558 18.6865 56.4434 17.5954Z" fill="#353A51"/>
<path d="M1.68958 24.5865C1.68958 23.6772 2.40328 22.9758 3.32844 22.9758H14.1159C14.9353 22.9758 15.5961 23.6253 15.5961 24.4306C15.5961 25.236 14.9353 25.8855 14.1159 25.8855H4.94087V30.8503H12.9264C13.7458 30.8503 14.4093 31.4998 14.4093 32.3051C14.4093 33.1105 13.7484 33.76 12.9264 33.76H4.94087V39.712C4.94087 40.5953 4.22717 41.2968 3.32844 41.2968C2.40328 41.2968 1.68958 40.5953 1.68958 39.712V24.5865Z" fill="#353A51"/>
<path d="M29.6587 39.7354C29.6587 40.5927 28.945 41.2942 28.0463 41.2942C27.174 41.2942 26.4339 40.6187 26.4339 39.7354V39.0339C25.5351 40.3329 24.2399 41.45 22.0724 41.45C18.9268 41.45 17.1029 39.3716 17.1029 36.1761V28.8732C17.1029 27.9899 17.8166 27.2884 18.6889 27.2884C19.5876 27.2884 20.3013 27.9899 20.3013 28.8732V35.2409C20.3013 37.3712 21.3851 38.5663 23.2883 38.5663C25.1386 38.5663 26.4339 37.3192 26.4339 35.1889V28.8732C26.4339 27.9899 27.1476 27.2884 28.0463 27.2884C28.9186 27.2884 29.6587 27.9899 29.6587 28.8732V39.7354Z" fill="#353A51"/>
<path d="M33.5629 37.3712V30.1488H33.0342C32.2676 30.1488 31.6597 29.5512 31.6597 28.7952C31.6597 28.0392 32.2676 27.4443 33.0342 27.4443H33.5629V25.1061C33.5629 24.2488 34.2766 23.5473 35.1753 23.5473C36.0476 23.5473 36.7639 24.2488 36.7639 25.1061V27.4443H39.2751C40.0417 27.4443 40.6761 28.0418 40.6761 28.7952C40.6761 29.5486 40.0417 30.1488 39.2751 30.1488H36.7639V36.8776C36.7639 38.0986 37.3983 38.5922 38.4821 38.5922C38.8522 38.5922 39.1694 38.5143 39.2751 38.5143C39.9888 38.5143 40.6232 39.0858 40.6232 39.8133C40.6232 40.3848 40.2267 40.8525 39.7773 41.0343C39.0901 41.2682 38.4292 41.3981 37.5834 41.3981C35.2282 41.3981 33.5629 40.3848 33.5629 37.3712Z" fill="#353A51"/>
<path d="M55.1774 39.7354C55.1774 40.5927 54.4637 41.2942 53.565 41.2942C52.6927 41.2942 51.9525 40.6187 51.9525 39.7354V39.0339C51.0538 40.3329 49.7586 41.45 47.591 41.45C44.4455 41.45 42.6216 39.3716 42.6216 36.1761V28.8732C42.6216 27.9899 43.3353 27.2884 44.2076 27.2884C45.1063 27.2884 45.82 27.9899 45.82 28.8732V35.2409C45.82 37.3712 46.9038 38.5663 48.807 38.5663C50.6573 38.5663 51.9525 37.3192 51.9525 35.1889V28.8732C51.9525 27.9899 52.6662 27.2884 53.565 27.2884C54.4373 27.2884 55.1774 27.9899 55.1774 28.8732V39.7354Z" fill="#353A51"/>
<path d="M58.5555 28.8732C58.5555 27.9899 59.2428 27.2884 60.1415 27.2884C61.0403 27.2884 61.754 27.9899 61.754 28.8732V30.2761C62.4941 28.5614 63.8686 27.2625 65.2722 27.2625C66.2767 27.2625 66.8582 27.9119 66.8582 28.8212C66.8582 29.6526 66.3031 30.1982 65.5894 30.3281C63.3162 30.7178 61.754 32.4324 61.754 35.6825V39.7354C61.754 40.5927 61.0403 41.2942 60.1415 41.2942C59.2692 41.2942 58.5555 40.6187 58.5555 39.7354V28.8732Z" fill="#353A51"/>
<path d="M74.7089 41.476C70.6647 41.476 67.5455 38.5923 67.5455 34.355V34.303C67.5455 30.38 70.3739 27.1585 74.368 27.1585C78.8088 27.1585 81.0027 30.7438 81.0027 33.9159C81.0027 34.7992 80.3155 35.4227 79.496 35.4227H70.744C71.0876 37.657 72.7 38.904 74.7645 38.904C76.1126 38.904 77.1699 38.4364 78.0686 37.709C78.3065 37.5271 78.518 37.4232 78.8881 37.4232C79.6017 37.4232 80.1569 37.9688 80.1569 38.6962C80.1569 39.0859 79.9718 39.4236 79.7339 39.6574C78.4625 40.7746 76.8765 41.476 74.7089 41.476ZM77.8809 33.3417C77.6695 31.3153 76.4536 29.7305 74.3389 29.7305C72.3828 29.7305 71.0083 31.2114 70.7175 33.3417H77.8809Z" fill="#353A51"/>
</svg>
